<mxfile host="app.diagrams.net" agent="Mozilla/5.0 (Macintosh; Intel Mac OS X 10_15_7) AppleWebKit/537.36 (KHTML, like Gecko) Chrome/131.0.0.0 Safari/537.36" version="25.0.3">
  <diagram name="Page-1" id="sa3ymXvd7jjZQVC8KvQ6">
    <mxGraphModel dx="458" dy="307" grid="1" gridSize="10" guides="1" tooltips="1" connect="1" arrows="1" fold="1" page="1" pageScale="1" pageWidth="827" pageHeight="1169" math="0" shadow="0">
      <root>
        <mxCell id="0" />
        <mxCell id="1" parent="0" />
        <mxCell id="0biuD_gMba5-ZeGTAxBz-9" value="" style="rounded=0;whiteSpace=wrap;html=1;fillColor=#f5f5f5;fontColor=#333333;strokeColor=#666666;fontSize=9;" parent="1" vertex="1">
          <mxGeometry x="377" y="370" width="130" height="61" as="geometry" />
        </mxCell>
        <mxCell id="DSF0JdCFXwAlsFwlsIC3-1" value="R4" style="sketch=0;points=[[0.5,0,0],[1,0.5,0],[0.5,1,0],[0,0.5,0],[0.145,0.145,0],[0.8555,0.145,0],[0.855,0.8555,0],[0.145,0.855,0]];verticalLabelPosition=bottom;html=1;verticalAlign=top;aspect=fixed;align=center;pointerEvents=1;shape=mxgraph.cisco19.rect;prIcon=router;fillColor=#d5e8d4;strokeColor=#82b366;" parent="1" vertex="1">
          <mxGeometry x="300" y="300" width="50" height="50" as="geometry" />
        </mxCell>
        <mxCell id="DSF0JdCFXwAlsFwlsIC3-2" value="R5" style="sketch=0;points=[[0.5,0,0],[1,0.5,0],[0.5,1,0],[0,0.5,0],[0.145,0.145,0],[0.8555,0.145,0],[0.855,0.8555,0],[0.145,0.855,0]];verticalLabelPosition=bottom;html=1;verticalAlign=top;aspect=fixed;align=center;pointerEvents=1;shape=mxgraph.cisco19.rect;prIcon=router;fillColor=#f8cecc;strokeColor=#b85450;" parent="1" vertex="1">
          <mxGeometry x="520.73" y="300" width="50" height="50" as="geometry" />
        </mxCell>
        <mxCell id="DSF0JdCFXwAlsFwlsIC3-4" value="&lt;font color=&quot;#cc0000&quot; style=&quot;font-size: 10px;&quot;&gt;&lt;b&gt;surrogate&lt;/b&gt;&lt;/font&gt;" style="image;aspect=fixed;perimeter=ellipsePerimeter;html=1;align=center;shadow=0;dashed=0;spacingTop=3;image=img/lib/active_directory/database.svg;" parent="1" vertex="1">
          <mxGeometry x="124.03999999999999" y="160.82" width="50" height="37" as="geometry" />
        </mxCell>
        <mxCell id="DSF0JdCFXwAlsFwlsIC3-5" value="&lt;font color=&quot;#cc0000&quot; style=&quot;font-size: 10px;&quot;&gt;&lt;b&gt;surrogate&lt;/b&gt;&lt;/font&gt;" style="image;aspect=fixed;perimeter=ellipsePerimeter;html=1;align=center;shadow=0;dashed=0;spacingTop=3;image=img/lib/active_directory/database.svg;imageBackground=none;" parent="1" vertex="1">
          <mxGeometry x="654.73" y="156.82" width="50" height="37" as="geometry" />
        </mxCell>
        <mxCell id="DSF0JdCFXwAlsFwlsIC3-8" value="&lt;b&gt;&lt;font color=&quot;#cc0000&quot;&gt;origin&lt;/font&gt;&lt;/b&gt;" style="strokeWidth=2;html=1;shape=mxgraph.flowchart.database;whiteSpace=wrap;verticalAlign=bottom;" parent="1" vertex="1">
          <mxGeometry x="210" y="12.999999999999996" width="60" height="60" as="geometry" />
        </mxCell>
        <mxCell id="DSF0JdCFXwAlsFwlsIC3-9" value="R1" style="sketch=0;points=[[0.5,0,0],[1,0.5,0],[0.5,1,0],[0,0.5,0],[0.145,0.145,0],[0.8555,0.145,0],[0.855,0.8555,0],[0.145,0.855,0]];verticalLabelPosition=bottom;html=1;verticalAlign=top;aspect=fixed;align=center;pointerEvents=1;shape=mxgraph.cisco19.rect;prIcon=router;fillColor=#dae8fc;strokeColor=#6c8ebf;" parent="1" vertex="1">
          <mxGeometry x="410" y="33" width="50" height="50" as="geometry" />
        </mxCell>
        <mxCell id="DSF0JdCFXwAlsFwlsIC3-23" style="edgeStyle=orthogonalEdgeStyle;rounded=0;orthogonalLoop=1;jettySize=auto;html=1;entryX=0;entryY=0.5;entryDx=0;entryDy=0;entryPerimeter=0;endArrow=none;endFill=0;" parent="1" source="DSF0JdCFXwAlsFwlsIC3-1" target="DSF0JdCFXwAlsFwlsIC3-2" edge="1">
          <mxGeometry relative="1" as="geometry" />
        </mxCell>
        <mxCell id="DSF0JdCFXwAlsFwlsIC3-26" value="" style="sketch=0;outlineConnect=0;fontColor=#232F3E;gradientColor=none;fillColor=#232F3D;strokeColor=none;dashed=0;verticalLabelPosition=bottom;verticalAlign=top;align=center;html=1;fontSize=12;fontStyle=0;aspect=fixed;pointerEvents=1;shape=mxgraph.aws4.source_code;" parent="1" vertex="1">
          <mxGeometry x="142.03" y="162.82" width="14.01" height="19.18" as="geometry" />
        </mxCell>
        <mxCell id="DSF0JdCFXwAlsFwlsIC3-27" value="" style="sketch=0;outlineConnect=0;fontColor=#232F3E;gradientColor=none;fillColor=#232F3D;strokeColor=none;dashed=0;verticalLabelPosition=bottom;verticalAlign=top;align=center;html=1;fontSize=12;fontStyle=0;aspect=fixed;pointerEvents=1;shape=mxgraph.aws4.source_code;" parent="1" vertex="1">
          <mxGeometry x="684.73" y="156.66" width="12.73" height="17.42" as="geometry" />
        </mxCell>
        <mxCell id="DSF0JdCFXwAlsFwlsIC3-28" value="" style="verticalLabelPosition=bottom;html=1;verticalAlign=top;align=center;strokeColor=none;fillColor=#00BEF2;shape=mxgraph.azure.laptop;pointerEvents=1;" parent="1" vertex="1">
          <mxGeometry x="240" y="390" width="50" height="30" as="geometry" />
        </mxCell>
        <mxCell id="DSF0JdCFXwAlsFwlsIC3-29" value="" style="verticalLabelPosition=bottom;html=1;verticalAlign=top;align=center;strokeColor=none;fillColor=#00BEF2;shape=mxgraph.azure.laptop;pointerEvents=1;" parent="1" vertex="1">
          <mxGeometry x="580.73" y="390" width="50" height="30" as="geometry" />
        </mxCell>
        <mxCell id="DSF0JdCFXwAlsFwlsIC3-30" style="rounded=0;orthogonalLoop=1;jettySize=auto;html=1;entryX=0.9;entryY=0.771;entryDx=0;entryDy=0;entryPerimeter=0;endArrow=none;endFill=0;" parent="1" source="DSF0JdCFXwAlsFwlsIC3-29" target="DSF0JdCFXwAlsFwlsIC3-2" edge="1">
          <mxGeometry relative="1" as="geometry" />
        </mxCell>
        <mxCell id="DSF0JdCFXwAlsFwlsIC3-31" style="rounded=0;orthogonalLoop=1;jettySize=auto;html=1;entryX=0.145;entryY=0.855;entryDx=0;entryDy=0;entryPerimeter=0;endArrow=none;endFill=0;" parent="1" source="DSF0JdCFXwAlsFwlsIC3-28" target="DSF0JdCFXwAlsFwlsIC3-1" edge="1">
          <mxGeometry relative="1" as="geometry" />
        </mxCell>
        <mxCell id="DSF0JdCFXwAlsFwlsIC3-34" value="" style="sketch=0;outlineConnect=0;fontColor=#232F3E;gradientColor=none;fillColor=#232F3D;strokeColor=none;dashed=0;verticalLabelPosition=bottom;verticalAlign=top;align=center;html=1;fontSize=12;fontStyle=0;aspect=fixed;pointerEvents=1;shape=mxgraph.aws4.source_code;" parent="1" vertex="1">
          <mxGeometry x="243.93" y="33" width="16.07" height="22" as="geometry" />
        </mxCell>
        <mxCell id="DSF0JdCFXwAlsFwlsIC3-35" value="" style="image;aspect=fixed;html=1;points=[];align=center;fontSize=12;image=img/lib/azure2/general/Image.svg;" parent="1" vertex="1">
          <mxGeometry x="219.99999999999997" y="38" width="14.55" height="10" as="geometry" />
        </mxCell>
        <mxCell id="DSF0JdCFXwAlsFwlsIC3-36" value="" style="image;aspect=fixed;html=1;points=[];align=center;fontSize=12;image=img/lib/azure2/general/Image.svg;" parent="1" vertex="1">
          <mxGeometry x="215.99999999999997" y="42" width="14.55" height="10" as="geometry" />
        </mxCell>
        <mxCell id="DSF0JdCFXwAlsFwlsIC3-37" value="" style="image;aspect=fixed;html=1;points=[];align=center;fontSize=12;image=img/lib/azure2/general/Image.svg;" parent="1" vertex="1">
          <mxGeometry x="212" y="46" width="14.55" height="10" as="geometry" />
        </mxCell>
        <mxCell id="DSF0JdCFXwAlsFwlsIC3-38" value="" style="image;aspect=fixed;html=1;points=[];align=center;fontSize=12;image=img/lib/azure2/general/Image.svg;" parent="1" vertex="1">
          <mxGeometry x="662.73" y="152.82" width="14.55" height="10" as="geometry" />
        </mxCell>
        <mxCell id="DSF0JdCFXwAlsFwlsIC3-39" value="" style="image;aspect=fixed;html=1;points=[];align=center;fontSize=12;image=img/lib/azure2/general/Image.svg;" parent="1" vertex="1">
          <mxGeometry x="658.73" y="156.82" width="14.55" height="10" as="geometry" />
        </mxCell>
        <mxCell id="DSF0JdCFXwAlsFwlsIC3-40" value="" style="image;aspect=fixed;html=1;points=[];align=center;fontSize=12;image=img/lib/azure2/general/Image.svg;" parent="1" vertex="1">
          <mxGeometry x="654.73" y="160.82" width="14.55" height="10" as="geometry" />
        </mxCell>
        <mxCell id="DSF0JdCFXwAlsFwlsIC3-41" value="" style="image;aspect=fixed;html=1;points=[];align=center;fontSize=12;image=img/lib/azure2/general/Image.svg;" parent="1" vertex="1">
          <mxGeometry x="167.99999999999997" y="166.82" width="14.55" height="10" as="geometry" />
        </mxCell>
        <mxCell id="DSF0JdCFXwAlsFwlsIC3-42" value="" style="image;aspect=fixed;html=1;points=[];align=center;fontSize=12;image=img/lib/azure2/general/Image.svg;" parent="1" vertex="1">
          <mxGeometry x="163.99999999999997" y="170.82" width="14.55" height="10" as="geometry" />
        </mxCell>
        <mxCell id="DSF0JdCFXwAlsFwlsIC3-43" value="" style="image;aspect=fixed;html=1;points=[];align=center;fontSize=12;image=img/lib/azure2/general/Image.svg;" parent="1" vertex="1">
          <mxGeometry x="159.99999999999997" y="174.82" width="14.55" height="10" as="geometry" />
        </mxCell>
        <mxCell id="DSF0JdCFXwAlsFwlsIC3-44" value="&lt;font&gt;120.0.1.1/24&lt;/font&gt;" style="text;html=1;align=center;verticalAlign=middle;resizable=0;points=[];autosize=1;strokeColor=none;fillColor=none;fontSize=7;" parent="1" vertex="1">
          <mxGeometry x="275" y="380" width="60" height="20" as="geometry" />
        </mxCell>
        <mxCell id="DSF0JdCFXwAlsFwlsIC3-45" value="&lt;font&gt;120.0.1.2/24&lt;/font&gt;" style="text;html=1;align=center;verticalAlign=middle;resizable=0;points=[];autosize=1;strokeColor=none;fillColor=none;fontSize=7;" parent="1" vertex="1">
          <mxGeometry x="245" y="330" width="60" height="20" as="geometry" />
        </mxCell>
        <mxCell id="DSF0JdCFXwAlsFwlsIC3-46" value="&lt;font&gt;120.0.2.1/24&lt;/font&gt;" style="text;html=1;align=center;verticalAlign=middle;resizable=0;points=[];autosize=1;strokeColor=none;fillColor=none;fontSize=7;" parent="1" vertex="1">
          <mxGeometry x="562.0000000000001" y="327" width="60" height="20" as="geometry" />
        </mxCell>
        <mxCell id="DSF0JdCFXwAlsFwlsIC3-47" value="&lt;font&gt;120.0.2.2/24&lt;/font&gt;" style="text;html=1;align=center;verticalAlign=middle;resizable=0;points=[];autosize=1;strokeColor=none;fillColor=none;fontSize=7;" parent="1" vertex="1">
          <mxGeometry x="589.73" y="373" width="60" height="20" as="geometry" />
        </mxCell>
        <mxCell id="DSF0JdCFXwAlsFwlsIC3-48" value="&lt;font&gt;120.0.3.1/24&lt;/font&gt;" style="text;html=1;align=center;verticalAlign=middle;resizable=0;points=[];autosize=1;strokeColor=none;fillColor=none;fontSize=7;" parent="1" vertex="1">
          <mxGeometry x="345.03" y="307" width="60" height="20" as="geometry" />
        </mxCell>
        <mxCell id="DSF0JdCFXwAlsFwlsIC3-49" value="&lt;font&gt;120.0.3.2/24&lt;/font&gt;" style="text;html=1;align=center;verticalAlign=middle;resizable=0;points=[];autosize=1;strokeColor=none;fillColor=none;fontSize=7;" parent="1" vertex="1">
          <mxGeometry x="465" y="307" width="60" height="20" as="geometry" />
        </mxCell>
        <mxCell id="DSF0JdCFXwAlsFwlsIC3-53" style="rounded=0;orthogonalLoop=1;jettySize=auto;html=1;endArrow=none;endFill=0;" parent="1" source="DSF0JdCFXwAlsFwlsIC3-50" target="DSF0JdCFXwAlsFwlsIC3-2" edge="1">
          <mxGeometry relative="1" as="geometry" />
        </mxCell>
        <mxCell id="DSF0JdCFXwAlsFwlsIC3-50" value="R3" style="sketch=0;points=[[0.5,0,0],[1,0.5,0],[0.5,1,0],[0,0.5,0],[0.145,0.145,0],[0.8555,0.145,0],[0.855,0.8555,0],[0.145,0.855,0]];verticalLabelPosition=bottom;html=1;verticalAlign=top;aspect=fixed;align=center;pointerEvents=1;shape=mxgraph.cisco19.rect;prIcon=router;fillColor=#fff2cc;strokeColor=#d6b656;horizontal=1;" parent="1" vertex="1">
          <mxGeometry x="522" y="140.37" width="50" height="50" as="geometry" />
        </mxCell>
        <mxCell id="DSF0JdCFXwAlsFwlsIC3-54" style="rounded=0;orthogonalLoop=1;jettySize=auto;html=1;entryX=0.017;entryY=0.422;entryDx=0;entryDy=0;entryPerimeter=0;endArrow=none;endFill=0;" parent="1" edge="1">
          <mxGeometry relative="1" as="geometry">
            <mxPoint x="572" y="162.81645054337815" as="sourcePoint" />
            <mxPoint x="655.58" y="168.25399999999996" as="targetPoint" />
          </mxGeometry>
        </mxCell>
        <mxCell id="DSF0JdCFXwAlsFwlsIC3-58" style="rounded=0;orthogonalLoop=1;jettySize=auto;html=1;exitX=0.5;exitY=1;exitDx=0;exitDy=0;exitPerimeter=0;endArrow=none;endFill=0;" parent="1" source="DSF0JdCFXwAlsFwlsIC3-55" target="DSF0JdCFXwAlsFwlsIC3-1" edge="1">
          <mxGeometry relative="1" as="geometry" />
        </mxCell>
        <mxCell id="DSF0JdCFXwAlsFwlsIC3-106" style="rounded=0;orthogonalLoop=1;jettySize=auto;html=1;exitX=0.018;exitY=0.345;exitDx=0;exitDy=0;exitPerimeter=0;entryX=0.998;entryY=0.096;entryDx=0;entryDy=0;endArrow=none;endFill=0;entryPerimeter=0;" parent="1" source="DSF0JdCFXwAlsFwlsIC3-55" target="DSF0JdCFXwAlsFwlsIC3-41" edge="1">
          <mxGeometry relative="1" as="geometry" />
        </mxCell>
        <mxCell id="DSF0JdCFXwAlsFwlsIC3-55" value="R2" style="sketch=0;points=[[0.5,0,0],[1,0.5,0],[0.5,1,0],[0,0.5,0],[0.145,0.145,0],[0.8555,0.145,0],[0.855,0.8555,0],[0.145,0.855,0]];verticalLabelPosition=bottom;html=1;verticalAlign=top;aspect=fixed;align=center;pointerEvents=1;shape=mxgraph.cisco19.rect;prIcon=router;fillColor=#fff2cc;strokeColor=#d6b656;" parent="1" vertex="1">
          <mxGeometry x="300" y="150.18" width="50" height="50" as="geometry" />
        </mxCell>
        <mxCell id="DSF0JdCFXwAlsFwlsIC3-67" value="&lt;font&gt;1.1.1.1/24&lt;/font&gt;" style="text;html=1;align=center;verticalAlign=middle;resizable=0;points=[];autosize=1;strokeColor=none;fillColor=none;fontSize=7;fontStyle=1" parent="1" vertex="1">
          <mxGeometry x="166.00000000000003" y="146.82" width="50" height="20" as="geometry" />
        </mxCell>
        <mxCell id="DSF0JdCFXwAlsFwlsIC3-68" value="&lt;font&gt;1.1.1.1/24&lt;/font&gt;" style="text;html=1;align=center;verticalAlign=middle;resizable=0;points=[];autosize=1;strokeColor=none;fillColor=none;fontSize=7;fontStyle=1" parent="1" vertex="1">
          <mxGeometry x="619.28" y="140.37" width="50" height="20" as="geometry" />
        </mxCell>
        <mxCell id="DSF0JdCFXwAlsFwlsIC3-73" style="rounded=0;orthogonalLoop=1;jettySize=auto;html=1;exitX=0.669;exitY=0.042;exitDx=0;exitDy=0;exitPerimeter=0;entryX=0.145;entryY=0.855;entryDx=0;entryDy=0;entryPerimeter=0;endArrow=none;endFill=0;" parent="1" source="DSF0JdCFXwAlsFwlsIC3-55" target="DSF0JdCFXwAlsFwlsIC3-9" edge="1">
          <mxGeometry relative="1" as="geometry" />
        </mxCell>
        <mxCell id="DSF0JdCFXwAlsFwlsIC3-74" value="&lt;font&gt;120.0.4.1/24&lt;/font&gt;" style="text;html=1;align=center;verticalAlign=middle;resizable=0;points=[];autosize=1;strokeColor=none;fillColor=none;fontSize=7;" parent="1" vertex="1">
          <mxGeometry x="270" y="280" width="60" height="20" as="geometry" />
        </mxCell>
        <mxCell id="DSF0JdCFXwAlsFwlsIC3-75" value="&lt;font&gt;120.0.5.1/24&lt;/font&gt;" style="text;html=1;align=center;verticalAlign=middle;resizable=0;points=[];autosize=1;strokeColor=none;fillColor=none;fontSize=7;" parent="1" vertex="1">
          <mxGeometry x="542.28" y="282" width="60" height="20" as="geometry" />
        </mxCell>
        <mxCell id="DSF0JdCFXwAlsFwlsIC3-76" value="&lt;font&gt;120.0.4.2/24&lt;/font&gt;" style="text;html=1;align=center;verticalAlign=middle;resizable=0;points=[];autosize=1;strokeColor=none;fillColor=none;fontSize=7;" parent="1" vertex="1">
          <mxGeometry x="325" y="193.82" width="60" height="20" as="geometry" />
        </mxCell>
        <mxCell id="DSF0JdCFXwAlsFwlsIC3-77" value="&lt;font&gt;120.0.5.2/24&lt;/font&gt;" style="text;html=1;align=center;verticalAlign=middle;resizable=0;points=[];autosize=1;strokeColor=none;fillColor=none;fontSize=7;" parent="1" vertex="1">
          <mxGeometry x="484.28000000000003" y="180.82" width="60" height="20" as="geometry" />
        </mxCell>
        <mxCell id="DSF0JdCFXwAlsFwlsIC3-79" value="&lt;font&gt;1.1.1.2/24&lt;/font&gt;" style="text;html=1;align=center;verticalAlign=middle;resizable=0;points=[];autosize=1;strokeColor=none;fillColor=none;fontSize=7;fontStyle=0" parent="1" vertex="1">
          <mxGeometry x="562" y="142.82" width="50" height="20" as="geometry" />
        </mxCell>
        <mxCell id="DSF0JdCFXwAlsFwlsIC3-81" value="&lt;font&gt;1.1.1.3/24&lt;/font&gt;" style="text;html=1;align=center;verticalAlign=middle;resizable=0;points=[];autosize=1;strokeColor=none;fillColor=none;fontSize=7;fontStyle=0" parent="1" vertex="1">
          <mxGeometry x="252.02999999999997" y="146.82" width="50" height="20" as="geometry" />
        </mxCell>
        <mxCell id="DSF0JdCFXwAlsFwlsIC3-83" value="&lt;font&gt;120.0.6.2/24&lt;/font&gt;" style="text;html=1;align=center;verticalAlign=middle;resizable=0;points=[];autosize=1;strokeColor=none;fillColor=none;fontSize=7;" parent="1" vertex="1">
          <mxGeometry x="507" y="120.37" width="60" height="20" as="geometry" />
        </mxCell>
        <mxCell id="DSF0JdCFXwAlsFwlsIC3-84" value="&lt;font&gt;120.0.6.1/24&lt;/font&gt;" style="text;html=1;align=center;verticalAlign=middle;resizable=0;points=[];autosize=1;strokeColor=none;fillColor=none;fontSize=7;" parent="1" vertex="1">
          <mxGeometry x="450" y="63" width="60" height="20" as="geometry" />
        </mxCell>
        <mxCell id="DSF0JdCFXwAlsFwlsIC3-86" style="rounded=0;orthogonalLoop=1;jettySize=auto;html=1;exitX=0.855;exitY=0.8555;exitDx=0;exitDy=0;exitPerimeter=0;entryX=0.145;entryY=0.145;entryDx=0;entryDy=0;entryPerimeter=0;endArrow=none;endFill=0;" parent="1" source="DSF0JdCFXwAlsFwlsIC3-9" target="DSF0JdCFXwAlsFwlsIC3-50" edge="1">
          <mxGeometry relative="1" as="geometry" />
        </mxCell>
        <mxCell id="DSF0JdCFXwAlsFwlsIC3-87" value="&lt;font&gt;120.0.7.2/24&lt;/font&gt;" style="text;html=1;align=center;verticalAlign=middle;resizable=0;points=[];autosize=1;strokeColor=none;fillColor=none;fontSize=7;" parent="1" vertex="1">
          <mxGeometry x="355" y="63" width="60" height="20" as="geometry" />
        </mxCell>
        <mxCell id="DSF0JdCFXwAlsFwlsIC3-88" value="&lt;font&gt;120.0.7.1/24&lt;/font&gt;" style="text;html=1;align=center;verticalAlign=middle;resizable=0;points=[];autosize=1;strokeColor=none;fillColor=none;fontSize=7;" parent="1" vertex="1">
          <mxGeometry x="330" y="140.37" width="60" height="20" as="geometry" />
        </mxCell>
        <mxCell id="DSF0JdCFXwAlsFwlsIC3-98" value="&lt;font&gt;1.1.2.1/24&lt;/font&gt;" style="text;html=1;align=center;verticalAlign=middle;resizable=0;points=[];autosize=1;strokeColor=none;fillColor=none;fontSize=7;fontStyle=1" parent="1" vertex="1">
          <mxGeometry x="227.95999999999998" y="73" width="50" height="20" as="geometry" />
        </mxCell>
        <mxCell id="DSF0JdCFXwAlsFwlsIC3-104" style="rounded=0;orthogonalLoop=1;jettySize=auto;html=1;exitX=0.278;exitY=0.06;exitDx=0;exitDy=0;exitPerimeter=0;entryX=1;entryY=0.85;entryDx=0;entryDy=0;entryPerimeter=0;endArrow=none;endFill=0;" parent="1" source="DSF0JdCFXwAlsFwlsIC3-55" target="DSF0JdCFXwAlsFwlsIC3-8" edge="1">
          <mxGeometry relative="1" as="geometry" />
        </mxCell>
        <mxCell id="DSF0JdCFXwAlsFwlsIC3-105" value="&lt;font&gt;1.1.2.2/24&lt;/font&gt;" style="text;html=1;align=center;verticalAlign=middle;resizable=0;points=[];autosize=1;strokeColor=none;fillColor=none;fontSize=7;fontStyle=0" parent="1" vertex="1">
          <mxGeometry x="285" y="120.36999999999999" width="50" height="20" as="geometry" />
        </mxCell>
        <mxCell id="0biuD_gMba5-ZeGTAxBz-2" value="&lt;font&gt;64001&lt;/font&gt;" style="text;html=1;align=center;verticalAlign=middle;whiteSpace=wrap;rounded=0;fillColor=#fff2cc;strokeColor=#d6b656;fontSize=9;" parent="1" vertex="1">
          <mxGeometry x="413.34" y="377.5" width="38.97" height="18" as="geometry" />
        </mxCell>
        <mxCell id="0biuD_gMba5-ZeGTAxBz-6" value="ASN :" style="text;html=1;align=center;verticalAlign=middle;resizable=0;points=[];autosize=1;strokeColor=none;fillColor=none;fontSize=9;" parent="1" vertex="1">
          <mxGeometry x="372" y="370" width="50" height="20" as="geometry" />
        </mxCell>
        <mxCell id="FCGqkRjF3n-NjVn0pTt9-6" style="rounded=0;orthogonalLoop=1;jettySize=auto;html=1;entryX=0.017;entryY=0.422;entryDx=0;entryDy=0;entryPerimeter=0;endArrow=none;endFill=0;" parent="1" edge="1">
          <mxGeometry relative="1" as="geometry">
            <mxPoint x="572" y="169.68645054337816" as="sourcePoint" />
            <mxPoint x="655.58" y="175.12399999999997" as="targetPoint" />
          </mxGeometry>
        </mxCell>
        <mxCell id="FCGqkRjF3n-NjVn0pTt9-7" value="&lt;font&gt;3.3.3.2/24&lt;/font&gt;" style="text;html=1;align=center;verticalAlign=middle;resizable=0;points=[];autosize=1;strokeColor=none;fillColor=none;fontSize=7;fontStyle=0" parent="1" vertex="1">
          <mxGeometry x="562" y="169.32" width="50" height="20" as="geometry" />
        </mxCell>
        <mxCell id="FCGqkRjF3n-NjVn0pTt9-8" value="&lt;font&gt;3.3.3.1/24&lt;/font&gt;" style="text;html=1;align=center;verticalAlign=middle;resizable=0;points=[];autosize=1;strokeColor=none;fillColor=none;fontSize=7;fontStyle=0" parent="1" vertex="1">
          <mxGeometry x="614.28" y="176.82" width="50" height="20" as="geometry" />
        </mxCell>
        <mxCell id="FCGqkRjF3n-NjVn0pTt9-10" style="rounded=0;orthogonalLoop=1;jettySize=auto;html=1;exitX=0.903;exitY=-0.12;exitDx=0;exitDy=0;exitPerimeter=0;entryX=0.227;entryY=0.021;entryDx=0;entryDy=0;endArrow=none;endFill=0;entryPerimeter=0;" parent="1" source="FCGqkRjF3n-NjVn0pTt9-11" target="FCGqkRjF3n-NjVn0pTt9-12" edge="1">
          <mxGeometry relative="1" as="geometry">
            <mxPoint x="302" y="176.82" as="sourcePoint" />
            <mxPoint x="168" y="175.82" as="targetPoint" />
          </mxGeometry>
        </mxCell>
        <mxCell id="FCGqkRjF3n-NjVn0pTt9-11" value="2.2.2.2/24" style="text;html=1;align=center;verticalAlign=middle;resizable=0;points=[];autosize=1;strokeColor=none;fillColor=none;fontSize=7;fontStyle=0" parent="1" vertex="1">
          <mxGeometry x="253.95999999999998" y="177.82" width="50" height="20" as="geometry" />
        </mxCell>
        <mxCell id="FCGqkRjF3n-NjVn0pTt9-12" value="2.2.2.1/24" style="text;html=1;align=center;verticalAlign=middle;resizable=0;points=[];autosize=1;strokeColor=none;fillColor=none;fontSize=7;fontStyle=0" parent="1" vertex="1">
          <mxGeometry x="167.95999999999998" y="176.82" width="50" height="20" as="geometry" />
        </mxCell>
        <mxCell id="2nCcBPlYXZFH9o39S0pJ-3" value="&lt;font&gt;64002&lt;/font&gt;" style="text;html=1;align=center;verticalAlign=middle;whiteSpace=wrap;rounded=0;fillColor=#dae8fc;strokeColor=#6c8ebf;fontSize=9;" parent="1" vertex="1">
          <mxGeometry x="462.31" y="377.5" width="38.97" height="18" as="geometry" />
        </mxCell>
        <mxCell id="2nCcBPlYXZFH9o39S0pJ-4" value="&lt;font&gt;64003&lt;/font&gt;" style="text;html=1;align=center;verticalAlign=middle;whiteSpace=wrap;rounded=0;fillColor=#f8cecc;strokeColor=#b85450;fontSize=9;" parent="1" vertex="1">
          <mxGeometry x="413.34" y="405.5" width="38.97" height="18" as="geometry" />
        </mxCell>
        <mxCell id="2nCcBPlYXZFH9o39S0pJ-5" value="&lt;font&gt;64004&lt;/font&gt;" style="text;html=1;align=center;verticalAlign=middle;whiteSpace=wrap;rounded=0;fillColor=#d5e8d4;strokeColor=#82b366;fontSize=9;" parent="1" vertex="1">
          <mxGeometry x="462.31" y="405.5" width="38.97" height="18" as="geometry" />
        </mxCell>
      </root>
    </mxGraphModel>
  </diagram>
</mxfile>
